<svg width="434" height="494" viewBox="0 0 434 494" xmlns="http://www.w3.org/2000/svg">
  <!-- Background with rounded corners -->
  <rect width="434" height="494" rx="50" ry="50" fill="#FFFFFF"/>
  
  <!-- Original paths with centered content -->
  <g transform="translate(0, 20)"> <!-- Adjust the translation to center the content -->
    <path fill="#020202" d="M367.5,238.5 C348.167,238.5 328.833,238.5 309.5,238.5C309.667,199.165 309.5,159.832 309,120.5C277.555,120.171 246.389,119.171 215.5,117.5C233.632,98.8681 251.965,80.3681 270.5,62C302.833,61.3333 335.167,61.3333 367.5,62C367.571,120.93 367.571,179.764 367.5,238.5 Z"/>
    <path fill="#898989" d="M213.5,119.5 C238.995,120.498 264.661,120.831 290.5,120.5C265.167,121.167 239.833,121.833 214.5,122.5C186.574,121.509 158.574,121.176 130.5,121.5C158.069,120.825 185.736,120.159 213.5,119.5 Z"/>
    <path fill="#020202" d="M130.5,121.5 C158.574,121.176 186.574,121.509 214.5,122.5C215.833,124.5 217.5,126.167 219.5,127.5C220.08,129.749 221.413,131.415 223.5,132.5C225.167,133.5 226.5,134.833 227.5,136.5C231.167,140.833 235.167,144.833 239.5,148.5C243.5,150.5 246.5,153.5 248.5,157.5C249.158,184.188 248.491,210.521 246.5,236.5C237.167,227.833 228.167,218.833 219.5,209.5C218.738,207.738 217.404,206.738 215.5,206.5C215.5,204.5 214.5,203.5 212.5,203.5C212.5,203.167 212.5,202.833 212.5,202.5C211.415,200.413 209.749,199.08 207.5,198.5C207.5,198.167 207.5,197.833 207.5,197.5C205.431,194.427 202.764,192.094 199.5,190.5C196.5,187.167 193.5,183.833 190.5,180.5C151.669,179.667 112.669,179.167 73.5,179C74.8228,178.184 75.4894,177.017 75.5,175.5C93.2174,156.782 111.551,138.782 130.5,121.5 Z"/>
    <path fill="#838383" d="M219.5,127.5 C221.587,128.585 222.92,130.251 223.5,132.5C221.413,131.415 220.08,129.749 219.5,127.5 Z"/>
    <path fill="#7d7d7d" d="M227.5,136.5 C232.5,139.5 236.5,143.5 239.5,148.5C235.167,144.833 231.167,140.833 227.5,136.5 Z"/>
    <path fill="#3f3f3f" d="M215.5,117.5 C246.389,119.171 277.555,120.171 309,120.5C309.5,159.832 309.667,199.165 309.5,238.5C328.833,238.5 348.167,238.5 367.5,238.5C348.007,239.497 328.34,239.83 308.5,239.5C308.667,200.165 308.5,160.832 308,121.5C302.259,120.525 296.425,120.192 290.5,120.5C264.661,120.831 238.995,120.498 213.5,119.5C213.833,118.5 214.5,117.833 215.5,117.5 Z"/>
    <path fill="#717171" d="M75.5,175.5 C75.4894,177.017 74.8228,178.184 73.5,179C112.669,179.167 151.669,179.667 190.5,180.5C151.167,180.5 111.833,180.5 72.5,180.5C72.2729,178.067 73.2729,176.401 75.5,175.5 Z"/>
    <path fill="#888888" d="M199.5,190.5 C202.764,192.094 205.431,194.427 207.5,197.5C204.236,195.906 201.569,193.573 199.5,190.5 Z"/>
    <path fill="#7c7c7c" d="M207.5,198.5 C209.749,199.08 211.415,200.413 212.5,202.5C210.251,201.92 208.585,200.587 207.5,198.5 Z"/>
    <path fill="#aaaaaa" d="M212.5,203.5 C214.5,203.5 215.5,204.5 215.5,206.5C214.167,205.833 213.167,204.833 212.5,203.5 Z"/>
    <path fill="#9e9e9e" d="M215.5,206.5 C217.404,206.738 218.738,207.738 219.5,209.5C217.596,209.262 216.262,208.262 215.5,206.5 Z"/>
    <path fill="#444444" d="M248.5,157.5 C249.829,184.336 249.829,211.336 248.5,238.5C247.478,238.145 246.811,237.478 246.5,236.5C248.491,210.521 249.158,184.188 248.5,157.5 Z"/>
    <path fill="#040404" d="M182.5,358.5 C196.516,358.833 210.516,358.499 224.5,357.5C224.376,356.893 224.043,356.56 223.5,356.5C216.5,350.167 209.833,343.5 203.5,336.5C202.738,334.738 201.404,333.738 199.5,333.5C196.5,330.167 193.5,326.833 190.5,323.5C190.169,296.661 190.502,269.995 191.5,243.5C210.833,262.167 229.833,281.167 248.5,300.5C287.677,300.835 326.677,301.835 365.5,303.5C347.035,322.465 328.368,341.299 309.5,360C281.595,360.828 253.761,360.661 226,359.5C212.632,373.035 199.132,386.369 185.5,399.5C184.167,400.167 183.167,401.167 182.5,402.5C178.167,407.5 173.5,412.167 168.5,416.5C136.167,416.5 103.833,416.5 71.5,416.5C70.3348,358.001 70.1681,299.335 71,240.5C77.4029,239.387 83.9029,238.72 90.5,238.5C103.821,239.333 117.154,239.666 130.5,239.5C130.5,278.833 130.5,318.167 130.5,357.5C147.836,357.429 165.169,357.763 182.5,358.5 Z"/>
    <path fill="#464646" d="M191.5,243.5 C190.502,269.995 190.169,296.661 190.5,323.5C189.171,296.664 189.171,269.664 190.5,242.5C191.107,242.624 191.44,242.957 191.5,243.5 Z"/>
    <path fill="#727272" d="M248.5,300.5 C287.833,300.5 327.167,300.5 366.5,300.5C366.737,301.791 366.404,302.791 365.5,303.5C326.677,301.835 287.677,300.835 248.5,300.5 Z"/>
    <path fill="#a1a1a1" d="M199.5,333.5 C201.404,333.738 202.738,334.738 203.5,336.5C201.596,336.262 200.262,335.262 199.5,333.5 Z"/>
    <path fill="#929292" d="M223.5,356.5 C224.043,356.56 224.376,356.893 224.5,357.5C210.516,358.499 196.516,358.833 182.5,358.5C196.167,357.833 209.833,357.167 223.5,356.5 Z"/>
    <path fill="#808080" d="M185.5,399.5 C185.5,401.5 184.5,402.5 182.5,402.5C183.167,401.167 184.167,400.167 185.5,399.5 Z"/>
    <path fill="#464646" d="M71.5,416.5 C103.833,416.5 136.167,416.5 168.5,416.5C168.389,417.117 168.056,417.617 167.5,418C135.423,418.396 103.423,417.896 71.5,416.5 Z"/>
  </g>
</svg>
