<?xml version="1.0" encoding="UTF-8"?>
<!DOCTYPE svg PUBLIC "-//W3C//DTD SVG 1.1//EN" "http://www.w3.org/Graphics/SVG/1.1/DTD/svg11.dtd">
<svg xmlns="http://www.w3.org/2000/svg" version="1.1" width="434px" height="494px" style="shape-rendering:geometricPrecision; text-rendering:geometricPrecision; image-rendering:optimizeQuality; fill-rule:evenodd; clip-rule:evenodd" xmlns:xlink="http://www.w3.org/1999/xlink">
<g><path style="opacity:0.998" fill="#020202" d="M 367.5,238.5 C 348.167,238.5 328.833,238.5 309.5,238.5C 309.667,199.165 309.5,159.832 309,120.5C 277.555,120.171 246.389,119.171 215.5,117.5C 233.632,98.8681 251.965,80.3681 270.5,62C 302.833,61.3333 335.167,61.3333 367.5,62C 367.571,120.93 367.571,179.764 367.5,238.5 Z"/></g>
<g><path style="opacity:0.052" fill="#898989" d="M 213.5,119.5 C 238.995,120.498 264.661,120.831 290.5,120.5C 265.167,121.167 239.833,121.833 214.5,122.5C 186.574,121.509 158.574,121.176 130.5,121.5C 158.069,120.825 185.736,120.159 213.5,119.5 Z"/></g>
<g><path style="opacity:0.999" fill="#020202" d="M 130.5,121.5 C 158.574,121.176 186.574,121.509 214.5,122.5C 215.833,124.5 217.5,126.167 219.5,127.5C 220.08,129.749 221.413,131.415 223.5,132.5C 225.167,133.5 226.5,134.833 227.5,136.5C 231.167,140.833 235.167,144.833 239.5,148.5C 243.5,150.5 246.5,153.5 248.5,157.5C 249.158,184.188 248.491,210.521 246.5,236.5C 237.167,227.833 228.167,218.833 219.5,209.5C 218.738,207.738 217.404,206.738 215.5,206.5C 215.5,204.5 214.5,203.5 212.5,203.5C 212.5,203.167 212.5,202.833 212.5,202.5C 211.415,200.413 209.749,199.08 207.5,198.5C 207.5,198.167 207.5,197.833 207.5,197.5C 205.431,194.427 202.764,192.094 199.5,190.5C 196.5,187.167 193.5,183.833 190.5,180.5C 151.669,179.667 112.669,179.167 73.5,179C 74.8228,178.184 75.4894,177.017 75.5,175.5C 93.2174,156.782 111.551,138.782 130.5,121.5 Z"/></g>
<g><path style="opacity:0.408" fill="#838383" d="M 219.5,127.5 C 221.587,128.585 222.92,130.251 223.5,132.5C 221.413,131.415 220.08,129.749 219.5,127.5 Z"/></g>
<g><path style="opacity:0.008" fill="#7d7d7d" d="M 227.5,136.5 C 232.5,139.5 236.5,143.5 239.5,148.5C 235.167,144.833 231.167,140.833 227.5,136.5 Z"/></g>
<g><path style="opacity:0.171" fill="#3f3f3f" d="M 215.5,117.5 C 246.389,119.171 277.555,120.171 309,120.5C 309.5,159.832 309.667,199.165 309.5,238.5C 328.833,238.5 348.167,238.5 367.5,238.5C 348.007,239.497 328.34,239.83 308.5,239.5C 308.667,200.165 308.5,160.832 308,121.5C 302.259,120.525 296.425,120.192 290.5,120.5C 264.661,120.831 238.995,120.498 213.5,119.5C 213.833,118.5 214.5,117.833 215.5,117.5 Z"/></g>
<g><path style="opacity:0.106" fill="#717171" d="M 75.5,175.5 C 75.4894,177.017 74.8228,178.184 73.5,179C 112.669,179.167 151.669,179.667 190.5,180.5C 151.167,180.5 111.833,180.5 72.5,180.5C 72.2729,178.067 73.2729,176.401 75.5,175.5 Z"/></g>
<g><path style="opacity:0.475" fill="#888888" d="M 199.5,190.5 C 202.764,192.094 205.431,194.427 207.5,197.5C 204.236,195.906 201.569,193.573 199.5,190.5 Z"/></g>
<g><path style="opacity:0.604" fill="#7c7c7c" d="M 207.5,198.5 C 209.749,199.08 211.415,200.413 212.5,202.5C 210.251,201.92 208.585,200.587 207.5,198.5 Z"/></g>
<g><path style="opacity:0.467" fill="#aaaaaa" d="M 212.5,203.5 C 214.5,203.5 215.5,204.5 215.5,206.5C 214.167,205.833 213.167,204.833 212.5,203.5 Z"/></g>
<g><path style="opacity:0.459" fill="#9e9e9e" d="M 215.5,206.5 C 217.404,206.738 218.738,207.738 219.5,209.5C 217.596,209.262 216.262,208.262 215.5,206.5 Z"/></g>
<g><path style="opacity:0.45" fill="#444444" d="M 248.5,157.5 C 249.829,184.336 249.829,211.336 248.5,238.5C 247.478,238.145 246.811,237.478 246.5,236.5C 248.491,210.521 249.158,184.188 248.5,157.5 Z"/></g>
<g><path style="opacity:0.998" fill="#040404" d="M 182.5,358.5 C 196.516,358.833 210.516,358.499 224.5,357.5C 224.376,356.893 224.043,356.56 223.5,356.5C 216.5,350.167 209.833,343.5 203.5,336.5C 202.738,334.738 201.404,333.738 199.5,333.5C 196.5,330.167 193.5,326.833 190.5,323.5C 190.169,296.661 190.502,269.995 191.5,243.5C 210.833,262.167 229.833,281.167 248.5,300.5C 287.677,300.835 326.677,301.835 365.5,303.5C 347.035,322.465 328.368,341.299 309.5,360C 281.595,360.828 253.761,360.661 226,359.5C 212.632,373.035 199.132,386.369 185.5,399.5C 184.167,400.167 183.167,401.167 182.5,402.5C 178.167,407.5 173.5,412.167 168.5,416.5C 136.167,416.5 103.833,416.5 71.5,416.5C 70.3348,358.001 70.1681,299.335 71,240.5C 77.4029,239.387 83.9029,238.72 90.5,238.5C 103.821,239.333 117.154,239.666 130.5,239.5C 130.5,278.833 130.5,318.167 130.5,357.5C 147.836,357.429 165.169,357.763 182.5,358.5 Z"/></g>
<g><path style="opacity:0.383" fill="#464646" d="M 191.5,243.5 C 190.502,269.995 190.169,296.661 190.5,323.5C 189.171,296.664 189.171,269.664 190.5,242.5C 191.107,242.624 191.44,242.957 191.5,243.5 Z"/></g>
<g><path style="opacity:0.246" fill="#727272" d="M 248.5,300.5 C 287.833,300.5 327.167,300.5 366.5,300.5C 366.737,301.791 366.404,302.791 365.5,303.5C 326.677,301.835 287.677,300.835 248.5,300.5 Z"/></g>
<g><path style="opacity:0.439" fill="#a1a1a1" d="M 199.5,333.5 C 201.404,333.738 202.738,334.738 203.5,336.5C 201.596,336.262 200.262,335.262 199.5,333.5 Z"/></g>
<g><path style="opacity:0.179" fill="#929292" d="M 223.5,356.5 C 224.043,356.56 224.376,356.893 224.5,357.5C 210.516,358.499 196.516,358.833 182.5,358.5C 196.167,357.833 209.833,357.167 223.5,356.5 Z"/></g>
<g><path style="opacity:0.008" fill="#808080" d="M 185.5,399.5 C 185.5,401.5 184.5,402.5 182.5,402.5C 183.167,401.167 184.167,400.167 185.5,399.5 Z"/></g>
<g><path style="opacity:0.708" fill="#464646" d="M 71.5,416.5 C 103.833,416.5 136.167,416.5 168.5,416.5C 168.389,417.117 168.056,417.617 167.5,418C 135.423,418.396 103.423,417.896 71.5,416.5 Z"/></g>
</svg>
